/* XPM */
static char *_1167_76db4fe3df8bb7b719564be43dcb97eaf6e84b395064207feb60ab24087a7531[] = {
/* columns rows colors chars-per-pixel */
"32 32 196 2 ",
"   c gray2",
".  c #060606",
"X  c #070707",
"o  c gray3",
"O  c #090909",
"+  c #0C0C0C",
"@  c gray5",
"#  c #0E0E0E",
"$  c gray6",
"%  c #101010",
"&  c #111111",
"*  c #131313",
"=  c gray8",
"-  c #151515",
";  c #161616",
":  c gray9",
">  c #181818",
",  c #191919",
"<  c gray10",
"1  c #1B1B1B",
"2  c gray11",
"3  c #1D1D1D",
"4  c #1C1C1E",
"5  c #1D1E1E",
"6  c #1D1E1F",
"7  c #1E1E1E",
"8  c gray12",
"9  c #1D1E20",
"0  c #1D1E21",
"q  c #1E1E21",
"w  c #1D1E23",
"e  c #1E1F23",
"r  c #1F2020",
"t  c #1F2123",
"y  c #1F2026",
"u  c #1F202A",
"i  c #202020",
"p  c #202021",
"a  c gray13",
"s  c #212122",
"d  c #222222",
"f  c #222223",
"g  c #232323",
"h  c #212224",
"j  c #232324",
"k  c #222325",
"l  c gray14",
"z  c #242425",
"x  c #242525",
"c  c #252525",
"v  c #242426",
"b  c #252526",
"n  c #252527",
"m  c gray15",
"M  c #272727",
"N  c #212329",
"B  c #20222B",
"V  c #23252A",
"C  c #22242B",
"Z  c #23242B",
"A  c #23252B",
"S  c #252628",
"D  c #262628",
"F  c #262728",
"G  c #272728",
"H  c #25272B",
"J  c #22252D",
"K  c #23252D",
"L  c #25272C",
"P  c #26292E",
"I  c #27292E",
"U  c #282828",
"Y  c gray16",
"T  c #28292A",
"R  c #2A2A2A",
"E  c gray17",
"W  c #2A2B2D",
"Q  c #292B2E",
"!  c #2A2C2F",
"~  c #2C2C2C",
"^  c #2D2D2D",
"/  c gray18",
"(  c #2F2F2F",
")  c #252730",
"_  c #232637",
"`  c #232638",
"'  c #232738",
"]  c #232739",
"[  c #24273A",
"{  c #2D3034",
"}  c #2F3134",
"|  c gray19",
" . c #313131",
".. c #303132",
"X. c #323232",
"o. c gray20",
"O. c #303237",
"+. c #343434",
"@. c #353535",
"#. c gray21",
"$. c #373737",
"%. c #303338",
"&. c #313439",
"*. c #36393F",
"=. c gray22",
"-. c #393939",
";. c #3A3A3A",
":. c gray23",
">. c #3C3C3C",
",. c gray24",
"<. c #3E3E3E",
"1. c #3F3F3F",
"2. c #262B44",
"3. c #2E3448",
"4. c #2F354B",
"5. c #333945",
"6. c #383B40",
"7. c #393C41",
"8. c #383C43",
"9. c #30374E",
"0. c #3A4466",
"q. c gray25",
"w. c #414141",
"e. c gray26",
"r. c #434343",
"t. c #444444",
"y. c gray27",
"u. c #464646",
"i. c gray28",
"p. c #40454D",
"a. c #41464E",
"s. c #41464F",
"d. c #484848",
"f. c #494949",
"g. c #424750",
"h. c #444A53",
"j. c #454B54",
"k. c #464B55",
"l. c #434C5F",
"z. c #484E58",
"x. c #4A5058",
"c. c #4A505B",
"v. c #4A515B",
"b. c #4B525C",
"n. c #505050",
"m. c #515151",
"M. c gray32",
"N. c #555555",
"B. c gray34",
"V. c #5A5A5A",
"C. c #5B5B5B",
"Z. c #5D5D5D",
"A. c gray37",
"S. c #535963",
"D. c #555E6B",
"F. c #4A5577",
"G. c #4B5678",
"H. c #57606D",
"J. c #626262",
"K. c #646464",
"L. c gray40",
"P. c #686868",
"I. c gray42",
"U. c #6D6D6D",
"Y. c #6F6F6F",
"T. c #616B7A",
"R. c #636D7D",
"E. c #68717F",
"W. c gray44",
"Q. c #727272",
"!. c gray45",
"~. c #747474",
"^. c gray46",
"/. c #767676",
"(. c #5A6988",
"). c #687384",
"_. c #6A7587",
"`. c #6B7688",
"'. c #707D90",
"]. c #738094",
"[. c #748195",
"{. c #768398",
"}. c #7B899E",
"|. c gray52",
" X c #868686",
".X c #898989",
"XX c #909090",
"oX c #959595",
"OX c gray59",
"+X c #9F9F9F",
"@X c #8B9BB4",
"#X c #A2A2A2",
"$X c #A5A5A5",
"%X c gray71",
"&X c #B6B6B6",
"*X c #A5B5CE",
/* pixels */
"2.G.G.@X@X@X*X*X@X2.G.G.@X@X2.0.0.@X@X@X@X(.(.2.0.0.@X@X@X*X(.(.",
"2.0.0.@X@X@X*X(.2.G.G.@X*Xb.3 3 3 3 3 3 3 3 y 0.0.@X@X@X*X(.(.2.",
"0.2.0.0.@X*X(.2.G.G.@Xk.r j /  .$.1.1.;. .| j 4 %.@X@X*X(.(.2.0.",
"@X@X2.0.(.(.2.0.0.@Xh.z / X.@.N.L. XoXJ.Z.$.X.| l O.@X(.(.2.0.0.",
"@X@X@X2.2.2.0.0.@Xa.x ( X.$.B.P..X&X%XOXL.A.;.X. .l P (.2.0.0.@X",
"@X*X@X@X2.2.0.G.@X8.~ +.>.<.V.Y.W./.^.Q.U.J.<.,.o.| t 2.0.0.@X@X",
"@X@X*X@X@X2.0.0.g.F  .o.,.1.C.Q.I.I.I.I.Y.K.<.1.o.o.l Z 0.@X@X@X",
"@X@X@X*X@X@X2.0.C l X.o.<.t.r.A.~.W.W.!.L.t.r.q.o.+.m 5 @X@X@X@X",
"@X@X@X@X*X@X@X2.K c U | #.o.$.1.w.q.q.w.q.=. .#.X.U M 6 @X@X@X@X",
"@X@X@X@X@X*X*Xz.v m ~ ( =.B.L.|.$X+X+X#XXXK.A.:. ./ m b ) @X@X@X",
"@X@X@X@X@X*X(.H l R ,.y.X. .=.t.M.n.n.m.f.$.#./ t.w.^ M 3 0.@X@X",
"@X@X@X@X*X(.(.e U q.X./ , X X . X O O o . X X * / ^ e.~ 3 0.0.@X",
"@X@X@X*X(.(.2.A =.o.i & = Y o.R *   . $ M X.~ > % 3 / ,.3 0.0.0.",
"0.@X@X(.(.2.G.0 r.M 1 + 2 $.<.M ; 8 7 , i <.=.c O 3 7 i.3 2.0.0.",
"0.0.(.(.2.0.0.4...a g < - ; = : 7 d d 7 > = - : ; c 7 / E.@X2.0.",
"2.2.2.2.2.0.0.@XR.k d U > $ # > E ^ R ^ 1 @ % = M g 2 H.*X*X@X2.",
"G.@X@X2.2.0.0.@X@X`.{ 8 E m ~ ~ #.w.,.,.Y ( c E a h T.@X*X(.(.2.",
"@X*X@X@X2.0.0.0.@X'.6.7 c Y -.;.:.>.$.q.@.,.U Y i T ).*X(.(.2.G.",
"@X@X*X@X@X2.0.9.3.W :.Y 1 a c d U ~ U ~ i M i a E ~ 8 l.(.2.G.@X",
"@X@X*X*X@X2.` f 3 E q.U g U M ~ U 7 3 m ~ Y c Y M :.R 1 2.G.@X@X",
"@X@X*X(.(.' i c 3 g | g 7 E -.<.-.M d $.,.;./ i a i.-.G _ 0.@X@X",
"@X*X(.(.] 8 c a i l c 8 3 c ^ / / l a ^ / ^ U 3 a :.;. .3 2.0.@X",
"@X(.(.[ d R i c U 7.8.S l  .<.y.,.m d ;.t.q.o.m 7 ^ ~ R 3 @X2.0.",
"(.(.[ d +.U M i 2 {.*Xj.d E ^ ^ U 8 3 M ^ ^ ~ d d d.t.o.3 *X@X2.",
"2.2.q  .M L &.m } [.@Xx.3 i d d d a a a d d a 3 d r.1.| 3 (.(.2.",
"G.G.2.w V F.@X*.}.@X@Xs.a :.d.u.,.o.o.;.u.u.<.l 7  ./ l I (.2.G.",
"@X*XG.2.0.0.@X@X@X@X@Xp.d #.e.-.E c c U #.,./ b ! Q Q P (.2.G.G.",
"@X@X*X@X2.0.0.@X@X@X@XS.n Y U U d 9 S 1 i R m N 0.@X(.(.2.G.G.@X",
"@X@X*X(.2.2.0.0.0.(.(.(.5.o.1./ g D.].D ^ @./ J 0.0.(.2.G.G.@X@X",
"@X*X(.2.2.@X@X2.0.0.0.0.B g U | E c.@X_.s p 8.2.2.2.2.0.0.@X@X@X",
"@X(.2.G.@X*X@X@X2.2.2.2.u R #.#.R v.@X@X@X*X*X*X2.2.0.0.@X@X@X*X",
"(.2.G.@X@X@X*X@X@X2.2.G.@X2.0.0.@X@X@X@X@X*X(.(.2.0.0.@X@X@X*X(."
};
