/* XPM */
static char *_1456_7125ef8b358792d4c5bbe31c609874b37930cac0eb488c860206160e2a74b83c[] = {
/* columns rows colors chars-per-pixel */
"32 32 13 1 ",
"  c #1D1D1D",
". c #282828",
"X c gray20",
"o c #343434",
"O c #262B44",
"+ c #3A4466",
"@ c gray26",
"# c #4B5678",
"$ c #6C6C6C",
"% c #5A6988",
"& c #8B9BB4",
"* c gray68",
"= c #A5B5CE",
/* pixels */
"O##&&&==&O##&&O++&&&&%%O++&&&=%%",
"O++&&&=%O#         &%%O++&&&=%%O",
"+O++&=%O  .Xo@@@oX.  O++&&&=%%O+",
"&&O+%%O .oo@$$*$$@oo. O++&&%%O++",
"&&&OOO .oo@$$***$$@oo. O++%%O++&",
"&=&&OO oo@@$$$$$$$@@oo OO%%O++&&",
"&&=&& .oo@@$$$$$$$@@oo. OOO++&&&",
"&&&=& .oo@@@$$$$$@@@oo. OO++&&&&",
"&&&&=  .o@@@@@@@@@@@o.  OO++&&&&",
"&&&& .X XX@@@@@@@@@Xo X. O+++&&&",
"&&&& .. XXX@@@@@@@XXX .. &O+++&&",
"&&&& .. XXXXXXXXXXXXX .o =&O+++&",
"&&&= @X..XXXXXXXXXXX..X@ ==&O+++",
"+&&%% @X..XXXXXXXXX..X@ &&==&O++",
"++%%O+ @@X..XXXXX..X@@ &&&&==&O+",
"OOOOO++  @$$$$$$$$$@  +&&&&&==&O",
"#&&OO++ .           . ++&&&&=%%O",
"&=&&O+ o .o.o@@@o.o.oo ++&&=%%O#",
"&&=&& .@ .@o.....o@ o@o +++%%O#&",
"&&==& oo .o@@@@@@@o .@@o OOOO#&&",
"&&=%  .. .oo@@@@@oo. o@@  #&O+&&",
"&=%% .   .ooooooooo. .o @. =&O+&",
"&%%O# .. ..ooooooo..   @@o ==&O+",
"%%OO##     .......   O o    ==&O",
"OOOO##&& o@@@@o@@@o. +  o. o %%O",
"##OO##&& .o@@o.o@o.. + o. .@. O#",
"&=#O++&& . .        O++  & .  ##",
"&&=&O++&& o.. O ... &O+++&%  ##&",
"&&=%OO+++ .oo O#   =&&O+++%O##&&",
"&=%OO&&O+ ooo ##&&&&=&&OOOO++&&&",
"&%O#&=&&OOOOOO++&&&&&===OO++&&&=",
"%O#&&&=&&OO#&O++&&&&&=%%O++&&&=%"
};
