/* XPM */
static char *_3675_2fc334bb071f4e7cf600405de3d757c2e56a2f95d9e61b403c020c7fd71e9feb[] = {
/* columns rows colors chars-per-pixel */
"32 32 35 1 ",
"  c #222222",
". c #323234",
"X c #583C3C",
"o c #534721",
"O c #262B44",
"+ c #292D46",
"@ c #292E47",
"# c #3A4466",
"$ c #3F486A",
"% c #444444",
"& c #705654",
"* c #454E6E",
"= c #4B5678",
"- c #646466",
"; c #876E6A",
": c #978300",
"> c #B19D00",
", c #D7906E",
"< c #5A6988",
"1 c #5D6B8A",
"2 c #757888",
"3 c #9F8781",
"4 c #8590A7",
"5 c #8B9BB4",
"6 c #8D9DB5",
"7 c #AAAAAD",
"8 c #EEBE93",
"9 c #A5B5CE",
"0 c #AAB9D1",
"q c #ABBAD1",
"w c #B9C3D2",
"e c #CACACC",
"r c #CCD5E3",
"t c gray91",
"y c white",
/* pixels */
"O==555995O==       55<<O##5559<<",
"O##5559<O=  %-----%  <O##5559<<O",
"#O##59<O= %%-------%% ##5559<<O#",
"55O#<<O# %%---------%% ##55<<O##",
"555OOO# %%-----------%% ##<<O##5",
"5955OO %%-------------%% <<O##55",
"55955O %-%%eeeeeeeee%%-% OO##555",
"55595 %%%eeyyyyyyyyyee%%% ##5555",
"55559 %%eyyyyyyyyyyyyye%% ##5555",
"55555 %etyytttttttttyyte% ###555",
"55555 7tytteeeeeeeeettyt7 O###55",
"555597tttee,,,,,,,,,eettt75O###5",
"55597e        888        e75O###",
"#55<7ee  %%--%   %--%%  ee795O##",
"##<<7ee7  %%%  8  %%%  7ee7995O#",
"OOOOO77&,     888     ,&7755995O",
"=55OO#X&&888&&;;;&&888&&X5559<<O",
"5955O$X&;&8&3333333&8&;&X559<<O=",
"55955+ X&;X3;&XXX&;3X;&X ##<<O=5",
"55995 %-X&&XX,,,,,XX&&X-% OOO=55",
"559< %--%X&X%ooooo%X&X%--% 5O#55",
"59<4 %-- %X%--   --%X% --% r5O#5",
"5<17yyte %%----%----%% etyy705O#",
"<<@7yyyt..%---   ---%..tyyy7q95O",
"OOO2 ..7...%.:>>>:.%...7.. w5<<O",
"==OO ..  %.%.:::::.%.%  .. 5<<O=",
"59=O#  67t%---------%t7*  5<<O==",
"5595O##57ttyyyyyyyyytt7##5<<O==5",
"559<OO###77ttttttttt77O###<O==55",
"59<OO55O# %%%%   %%%% 5OOOO##555",
"5<O=5955OO ... y ... 999OO##5559",
"<O=555955OO   yyy   59<<O##5559<"
};
