/* XPM */
static char *_889_d1ef583c8d913318aa6a3bcffce1c60cd4486f79c14705d4e20f58606ea3a577[] = {
/* columns rows colors chars-per-pixel */
"32 32 24 1 ",
"  c #222222",
". c #323234",
"X c #583C3C",
"o c #534721",
"O c #262B44",
"+ c #3A4466",
"@ c #444444",
"# c #705654",
"$ c #4B5678",
"% c #646466",
"& c #9D704C",
"* c #876E6A",
"= c #978300",
"- c #D7906E",
"; c #5A6988",
": c #9F8781",
"> c #8B9BB4",
", c #AAAAAD",
"< c #EEBE93",
"1 c #FFE1AF",
"2 c #A5B5CE",
"3 c #CACACC",
"4 c gray91",
"5 c white",
/* pixels */
"O$$>>>22>O$$>        ;;O++>>>2;;",
"O++>>>2;O$$  @@%%%%@@  ++>>>2;;O",
"+O++>2;O$  @@%%%%%%%%@@ >>>2;;O+",
">>O+;;O+ @@%%%%%%%%%%%%@ >>;;O++",
">>>OOO+ @@%%%%%%%%%%%%%%@ ;;O++>",
">2>>OO @@%%%%%%%%%%%%%%@@@ O++>>",
">>2>>O @%%%%%@%%%%%%%%3333,++>>>",
">>>2> @@%%%@@%%%%%%33445543,>>>>",
">>>>2 @%%@@@%%%%@3455555543,>>>>",
">>>>> @%@@ @%%@@34555555433,+>>>",
">>>> @%@@ @%%@@345554433--o+++>>",
">>>> @@@  @%@@3455433,,<<-oO+++>",
">>>2 @@  @@@@3455        <o>O+++",
"+>>;,  , @@@,45443  @@%%@  2>O++",
"++;,434, @@,4443,<#  @@@  o22>O+",
"OOO34543  ,3443,&1*-     <o>22>O",
"$>>,343,> ,333,o-**#<<<#**X>2;;O",
">2>>,,,+>>,33,X--#:*#<#:::#X;;O$",
">>2>>O+++>>,,XXX-X*:*#:#XX*X;O$>",
">>22>OO++++; X   &#*:*X&o#XOO$>>",
">>2;;OOOOOOO  @%@ X#*#X   $>O+>>",
">2;;O$$$$>>O  %%% @X#X%@@ $2>O+>",
">;;O$$>>>2>>  %%% @@X%%@  >22>O+",
";;OO$$>>>>2> ,5543....@.==>>22>O",
"OOOO$$>>>>>  ,5554....@.==>>>;;O",
"$$OO$$>>>>> @ ... %%%%@@@ >>;;O$",
">2$O++>>>>>,@ ... %%%%%@3,>;;O$$",
">>2>O++>>>>2,3   5555543,>;;O$$>",
">>2;OO+++;;;;,344444433,++;O$$>>",
">2;OO>>O++++OO        >OOOO++>>>",
">;O$>2>>OOOOOO+ .... 222OO++>>>2",
";O$>>>2>>OO$>O++    >2;;O++>>>2;"
};
