/* XPM */
static char *_9318_d0897efea45ce48f891fc301db23589807fa6d757532d935a7149971db1b1c58[] = {
/* columns rows colors chars-per-pixel */
"32 32 6 1 ",
"  c black",
". c #262B44",
"X c #3A4466",
"o c #C28569",
"O c #E8B796",
"+ c white",
/* pixels */
"++++++     ++++++++     ++++++++",
"++++++     ++++++++     ++++++++",
"++++  XXX..        ..XXX  ++++++",
"++++  XXX..        ..XXX  ++++++",
"++++  XX ..XX....XX..  X  ++++++",
"++++  XX ..XX....XX..  X  ++++++",
"++    ...XXXXXXXXXXXX...    ++++",
"++    ...XXXXXXXXXXXX...    ++++",
"++    ...XXXXXXXXXXXX...    ++++",
"  ..    XXXXX....XXXXXX   ..    ",
"  ..    XXXXX....XXXXXX   ..    ",
"  ..  .. ++  OOOO  ++  .  ..    ",
"  ..  .. ++  OOOO  ++  .  ..    ",
"  ..  XX   OOOOOOOO    X  ..    ",
"  ..  XX   OOOOOOOO    X  ..    ",
"  ....XXX..OO    OO..XXX....    ",
"  ....XXX..OO    OO..XXX....    ",
"  ..XX..X..OOooooOO..XX.XX..    ",
"  ..XX..X..OOooooOO..XX.XX..    ",
"    XXXX.            ..XXX    ++",
"    XXXX.            ..XXX    ++",
"  ....XXX..        ..XXX....  ++",
"  ....XXX..        ..XXX....  ++",
"++  XX  ............... XX  ++++",
"++  XX  ............... XX  ++++",
"++  XX  ............... XX  ++++",
"++  XXXX ..  ....  ..  XXX  ++++",
"++  XXXX ..  ....  ..  XXX  ++++",
"++    XX.            ..X    ++++",
"++    XX.            ..X    ++++",
"++  ..  .  ++++++++  .. ..  ++++",
"++  ..  .  ++++++++  .. ..  ++++"
};
