/* XPM */
static char *_3906_583bed14831f9356286d14ea9687ae133dd2017469ebf0485d0de0a6f7a4699b[] = {
/* columns rows colors chars-per-pixel */
"32 32 59 1 ",
"  c #5D763C",
". c #262B44",
"X c #2D4545",
"o c #2F5046",
"O c #335D46",
"+ c #3B565E",
"@ c #3C5F5A",
"# c #356747",
"$ c #3A7B47",
"% c #3C7F48",
"& c #3D7F4C",
"* c #3D7053",
"= c #3D7750",
"- c #3A4466",
"; c #43765A",
": c #44715F",
"> c #487D5F",
", c #4B5678",
"< c #466A65",
"1 c #47646B",
"2 c #48636C",
"3 c #4B7A66",
"4 c #537177",
"5 c #687F71",
"6 c #3C8248",
"7 c #3F844D",
"8 c #3E8848",
"9 c #3E8948",
"0 c #3F8949",
"q c #40814F",
"w c #428452",
"e c #448A50",
"r c #468B53",
"t c #458159",
"y c #498C58",
"u c #789B41",
"i c #528E64",
"p c #5A906F",
"a c #6E8867",
"s c #62917B",
"d c #85AD39",
"f c #86AF3B",
"g c #83AA3E",
"h c #8CB834",
"j c #8DB934",
"k c #8CB835",
"l c #8DB936",
"z c #88B139",
"x c #8DB641",
"c c #96B86C",
"v c #98B77C",
"b c #5A6988",
"n c #6D948A",
"m c #769696",
"M c #779698",
"N c #8B9BB4",
"B c #88A9A9",
"V c #8AAAAB",
"C c #A5B5CE",
/* pixels */
".,,NNNCCN.,,NN.--NNNNbb.--NNNCbb",
".--NNNCb.,,NCNN.--NNbb.--NNNCbb.",
"-.--NCb.,,NNNCNN.--bb.--NNNCbb.-",
"NN.-bb.--NNNNCbb.-,NN..--NNbb.--",
"NNN...--NNNNCbb.-,NCNN..--bb.--N",
"NCNN..-,NNNCbb.-,NNNCNN..bb.--NN",
"NNCNN.--NNNb5 uflrismCNN...--NNN",
"NNNCNN.--N4>89999j990pVC..--NNNN",
"NNNNCNN.-@&9999999j999wa..--NNNN",
"NNNNNCCNo699jjjjj99jjjj6<.---NNN",
"NNNNNCb4$99j99999j999999qM.---NN",
"NNNNCbb#99j9999999j999999cN.---N",
"NNNCbbXk9j999999999j9999j0BN.---",
"-NNbb.:9j99999999999jjjj99vCN.--",
"--bb.-=j99999999999999999jiCCN.-",
".....-d9999jjjjjjjj999999jrNCCN.",
",NN..-k999j99999999j99999j0NCbb.",
"NCNN.-d99j999jjjjj99jjj999xCbb.,",
"NNCNN.=9j999j99999j9999j99=bb.,N",
"NNCCN.O9j99j9999999j9999j9O..,NN",
"NNCbb.Xh999j99999999jj999k1N.-NN",
"NCbb.,,;999j9999999999j99;,CN.-N",
"Nbb.,,NMy999j9999999999jq2NCCN.-",
"bb..,,NNne999j999999999z<NNNCCN.",
"....,,NNNny999jjjjjjjjg<NNNNNbb.",
",,..,,NNNNMp099999998*+,NNNNbb.,",
"NC,.--NNNNNNB3t%87isX---NNNbb.,,",
"NNCN.--NNNNCbb..,,CNN.---Nbb.,,N",
"NNCb..---bbbb..,,NNCNN.---b.,,NN",
"NCb..NN.----..,,NNNNCNN....--NNN",
"Nb.,NCNN......--NNNNNCCC..--NNNC",
"b.,NNNCNN..,N.--NNNNNCbb.--NNNCb"
};
