/* XPM */
static char *_8101_00cc49d4a12bc57b302340d5bfe73237c919d3256bd0af80f5e1cba92fb387f3[] = {
/* columns rows colors chars-per-pixel */
"32 32 14 1 ",
"  c #0C0C0C",
". c #1D1D1D",
"X c #282828",
"o c gray20",
"O c #343434",
"+ c #262B44",
"@ c #3A4466",
"# c gray26",
"$ c #4B5678",
"% c #6C6C6C",
"& c #5A6988",
"* c #8B9BB4",
"= c gray68",
"- c #A5B5CE",
/* pixels */
"+$$***--*+$$**+@@****&&+@@***-&&",
"+@@***-&+$$.........&&+@@***-&&+",
"@+@@*-&+$..XoO###OoX..@@***-&&+@",
"**+@&&+@.XOO#%%=%%#OOX.@@**&&+@@",
"***+++@.XOO#%%===%%#OOX.@@&&+@@*",
"*-**++@.OO##%%%%%%%##OO.+&&+@@**",
"**-**+.XOO##%%%%%%%##OOX.++@@***",
"***-**.XOO###%%%%%###OOX.+@@****",
"****-*.XXOOO#######OOOOO.+@@****",
"*****.o#%====OOOOOOOOOXOX.@@@***",
"*****........==OXOOOOXXOX.+@@@**",
"****-&&      ..=OXX..XXOX.*+@@@*",
"***-&&+  X##X X.%X%#X.XOX.-*+@@@",
"@**&&+$XX XXX X.%##OO.XXX.--*+@@",
"@@&&+@@..X   X.XX%#OO.XX..*--*+@",
"+++++@@.X.....OXO%#OO..XOX.*--*+",
"$**++@@*.X#O#O#O#.%##.OOX.**-&&+",
"*-**+@@@*.OX#X#X#X.......**-&&+$",
"**-**+@@@*.........X.*+@@@@&&+$*",
"**--*++@@.XO##OX.#O..**++++++$**",
"**-&&++++..XXXX.##OX.--++$$*+@**",
"*-&&+$$$$.XO##O.##OX.&&+$$$-*+@*",
"*&&+$$***.XOOO.XOOX...+$$$*--*+@",
"&&++$$****....X..XX.X.$$$***--*+",
"++++$$****.XX.#OO....@$$*****&&+",
"$$++$$****..X.OOX.X.+@@$****&&+$",
"*-$+@@***.XX.X...XOX.@@@***&&+$$",
"**-*+@@**.XXX..XXXXX.+@@@*&&+$$*",
"**-&++@@@&...++.XOOO.*+@@@&+$$**",
"*-&++**+@@@@++$$....-**++++@@***",
"*&+$*-**++++++@@*****---++@@***-",
"&+$***-**++$*+@@*****-&&+@@***-&"
};
