/* XPM */
static char *_6434_514cc3df1c41b0dcb9e8c6a50a1fee19d23e184b786ace1c113ecfa2baa91c0c[] = {
/* columns rows colors chars-per-pixel */
"32 32 14 1 ",
"  c #0C0C0C",
". c #1D1D1D",
"X c #282828",
"o c gray20",
"O c #343434",
"+ c #262B44",
"@ c #3A4466",
"# c gray26",
"$ c #4B5678",
"% c #6C6C6C",
"& c #5A6988",
"* c #8B9BB4",
"= c gray68",
"- c #A5B5CE",
/* pixels */
"+$$***--*+$$**+@@****&&+@@***-&&",
"+@@***-&+$$*.........&+@@***-&&+",
"@+@@*-&+$$..XoO###OoX..@***-&&+@",
"**+@&&+@@.XOO#%%=%%#OOX.@**&&+@@",
"***+++@@.XOO#%%===%%#OOX.@&&+@@*",
"*-**++@$.OO##%%%%%%%##OO.&&+@@**",
"**-**+@.XOO##%%%%%%%##OOX.+@@***",
"***-**+.XOO###%%%%%###OOX.@@****",
"****-**.OOOOO#######OOOXX.@@****",
"*****-.XOXOOOOOOOOO====%#o.@@***",
"*****-.XOXXOOOOXO==........@@@**",
"****-&.XOXX..XXO=..      -*+@@@*",
"***-&&.XOX.X#%X%.X X##X  --*+@@@",
"@**&&+.XXX.OO##%.X XXX XX*--*+@@",
"@@&&+@..XX.OO#%XX.X   X..**--*+@",
"+++++.XOX..OO#%OXO.....X.***--*+",
"$**++@.XOO.##%.#O#O#O#X.****-&&+",
"*-**+@@.......X#X#X#XO.@@**-&&+$",
"**-**+@@@**.X.........+@@@@&&+$*",
"**--*++@@@@..OOX.O##OX.++++++$**",
"**-&&++++++.O##O.XXXX..++$$*+@**",
"*-&&+$$$$*.X###X.O##OX.+$$$-*+@*",
"*&&+$$***..OO....OOOOX.$$$*--*+@",
"&&++$$**.XO.X.X#......$$$***--*+",
"++++$$...XX#.XO.###OX.$$*****&&+",
"$$++$$.XO..O.XO.##XX..@$****&&+$",
"*-$+@@*..OO.XO.XXXOO#.@@***&&+$$",
"**-*+@@**...XO...XXXXX.@@*&&+$$*",
"**-&++@@@&.XO..$$.XOOO.@@@&+$$**",
"*-&++**+@@.X#.$$**....*++++@@***",
"*&+$*-**++++++@@*****---++@@***-",
"&+$***-**++$*+@@*****-&&+@@***-&"
};
