/* XPM */
static char *_0854_87dfb9abeeaee86965e395e57eb1ba629a7b5fb41dff9fe293a65ccd37c36219[] = {
/* columns rows colors chars-per-pixel */
"32 32 30 1 ",
"  c #222222",
". c #323234",
"X c #583C3C",
"o c #534721",
"O c #262B44",
"+ c #2C3149",
"@ c #2F334B",
"# c #343950",
"$ c #3A4466",
"% c #3B4567",
"& c #444444",
"* c #705654",
"= c #414B6B",
"- c #4B5678",
"; c #4C5779",
": c #646466",
"> c #9D704C",
", c #876E6A",
"< c #978300",
"1 c #D7906E",
"2 c #5A6988",
"3 c #9F8781",
"4 c #8B9BB4",
"5 c #AAAAAD",
"6 c #EEBE93",
"7 c #FFE1AF",
"8 c #A5B5CE",
"9 c #CACACC",
"0 c gray91",
"q c white",
/* pixels */
"O--444884O-        4422O$$444822",
"O$$44482O  &&::::&&  2O$$444822O",
"$O$$482O &&::::::::&&  $444822O$",
"44O$22O &::::::::::::&& $4422O$$",
"444OOO &::::::::::::::&& $22O$$4",
"4844O &&&::::::::::::::&& 2O$$44",
"4484459999::::::::&:::::& O$$444",
"4448590qq0099::::::&&:::&& $4444",
"4444590qqqqqq09&::::&&&::& $4444",
"44445990qqqqqq09&&::& &&:& $$444",
"44444o119900qqq09&&::& &&:& $$44",
"44448o16655990qq09&&:&  &&& $$$4",
"44482o6        qq09&&&&  && O$$$",
"$4422  &::&&  900q05&&& 5  54O$$",
"$$22+o  &&&  *6590005&& 509054O$",
"OOOO#o6     1,7>590095  90q0984O",
"-44O@X,,*666*,,1o59995 $5909522O",
"4844X*333*6*,3*11X5995$$$55522O-",
"4484X,XX*3*,3,X1XXX554O$$$$22O-4",
"44884X*o>X,3,*>   X 844OOOOOO-44",
"44822O   X*,*X &:&  888OO--4O$44",
"4822O- &&:X*X& :::  822O---84O$4",
"422O--  &::X&& :::  22O---4884O$",
"22OO--<<.&....90qq5 2O---444884O",
"OOOO--<<.&....0qqq5  $--4444422O",
"--OO-; &&&:::: ... & $$-444422O-",
"48-O$%59&::::: ... &5$$$44422O--",
"4484O$=590qqqqq   954O$$$422O--4",
"4482OO$%59900000095844O$$$2O--44",
"482OO44O$$        44844OOOO$$444",
"42O-4844OOO .... 4444888OO$$4448",
"2O-444844OO-    44444822O$$44482"
};
