/* XPM */
static char *_8506_2ee31f9db75e032bba38eb80df2ebdbdbdc0240b02d7c099e1cd9869b255e860[] = {
/* columns rows colors chars-per-pixel */
"32 32 17 1 ",
"  c #222222",
". c #323234",
"X c #262B44",
"o c #373C53",
"O c #3A4466",
"+ c #3F496A",
"@ c #444444",
"# c #4B5678",
"$ c #646466",
"% c #5A6988",
"& c #727F99",
"* c #8B9BB4",
"= c #AAAAAD",
"- c #A5B5CE",
"; c #CACACC",
": c gray91",
"> c white",
/* pixels */
"X##***--*X##       **%%XOO***-%%",
"XOO***-%X#  @$$$$$@  %XOO***-%%X",
"OXOO*-%X# @@$$$$$$$@@ OO***-%%XO",
"**XO%%XO @@$$$$$$$$$@@ OO**%%XOO",
"***XXXO @@$$$$$$$$$$$@@ OO%%XOO*",
"*-**XX @@$$$$$$$$$$$$$@@ %%XOO**",
"**-**X @$$$$$$$$$$$$$$$@ XXOO***",
"***-* @@$$$$$$$$$$$$$$$@@ OO****",
"****- @@@$$$$$$$$$$$$$@@@ OO****",
"***** @@@$$$$$$$$$$$$$@@@ OOO***",
"***** @@@@$$$$$$$$$$$@@@@ XOOO**",
"****- @@@@@$$$$$$$$$@@@@@ *XOOO*",
"***-= @@ @@$$$$$$$$$@@ @@ =*XOOO",
"O**%==@@@ @@$$$$$$$@@ @@@==-*XOO",
"OO%%=;;@@@ @@$$$$$@@ @@@;;=--*XO",
"XXXX=;:;@@@  @$$$@  @@@;:;=*--*X",
"#**XX=;:;;    @@@    ;;:;=**-%%X",
"*-**XO=;:>>::=:@:=::>>:;=**-%%X#",
"**-**X =;::>=:>>>:=>::;= OO%%X#*",
"**--* @$@==;=;>>>;=;==@$@ XXX#**",
"**-% @$$@@@@@=;:;=@@@@@$$@ *XO**",
"*-%& $$@ @$$$@===@$$$@ @$$ -*XO*",
"*%%=;$$@ @$$$$@@@$$$$@ @$$;=-*XO",
"%%X=:>>:..@$$$$$$$$$@..:>>:=--*X",
"XXXo=::=...@...@...@...=::=**%%X",
"##XX ..  @.@...@...@.@  .. *%%X#",
"*-#XO  *=:@$$$$$$$$$@:=+  *%%X##",
"**-*XOO*=::>>>>>>>>>::=OO*%%X##*",
"**-%XXOOO==:::::::::==XOOO%X##**",
"*-%XX**XO             *XXXXOO***",
"*%X#*-**XX ... O ... ---XXOO***-",
"%X#***-**XX   OO*   *-%%XOO***-%"
};
